HIERARCHY
ROOT Hips
{
  OFFSET 0.000000 0.000000 0.000000
  CHANNELS 6 Xposition Yposition Zposition Zrotation Yrotation Xrotation
  JOINT Spine
  {
    OFFSET -0.000883 2.120903 -0.028059
    CHANNELS 3 Zrotation Yrotation Xrotation
    JOINT Spine1
    {
      OFFSET -0.002865 2.096658 0.129739
      CHANNELS 3 Zrotation Yrotation Xrotation
      JOINT Spine2
      {
        OFFSET -0.000072 2.101496 0.140380
        CHANNELS 3 Zrotation Yrotation Xrotation
        JOINT Neck
        {
          OFFSET 0.073278 1.835262 0.072900
          CHANNELS 3 Zrotation Yrotation Xrotation
          JOINT Head
          {
            OFFSET -0.033980 1.851628 -0.175733
            CHANNELS 3 Zrotation Yrotation Xrotation
            End Site
            {
              OFFSET 0 0 0
            }
          }
        }
        JOINT LeftShoulder
        {
          OFFSET 3.021134 1.180177 0.406022
          CHANNELS 3 Zrotation Yrotation Xrotation
          JOINT LeftArm
          {
            OFFSET 4.585380 -0.000000 -0.000000
            CHANNELS 3 Zrotation Yrotation Xrotation
            JOINT LeftForeArm
            {
              OFFSET 2.689350 -0.000000 -0.000000
              CHANNELS 3 Zrotation Yrotation Xrotation
              JOINT LeftHand
              {
                OFFSET 0.585058 -0.000000 -0.000000
                CHANNELS 3 Zrotation Yrotation Xrotation
                JOINT LeftHandIndex1
                {
                  OFFSET 0.471689 -0.000000 -0.000000
                  CHANNELS 3 Zrotation Yrotation Xrotation
                  End Site
                  {
                    OFFSET 0 0 0
                  }
                }
              }
            }
          }
        }
        JOINT RightShoulder
        {
          OFFSET -2.950738 1.188427 0.314298
          CHANNELS 3 Zrotation Yrotation Xrotation
          JOINT RightArm
          {
            OFFSET -4.474500 -0.000000 -0.000000
            CHANNELS 3 Zrotation Yrotation Xrotation
            JOINT RightForeArm
            {
              OFFSET -2.938960 -0.000000 -0.000000
              CHANNELS 3 Zrotation Yrotation Xrotation
              JOINT RightHand
              {
                OFFSET -0.405092 -0.000000 -0.000000
                CHANNELS 3 Zrotation Yrotation Xrotation
                JOINT RightHandIndex1
                {
                  OFFSET -0.326596 -0.000000 -0.000000
                  CHANNELS 3 Zrotation Yrotation Xrotation
                  End Site
                  {
                    OFFSET 0 0 0
                  }
                }
              }
            }
          }
        }
      }
    }
  }
  JOINT LeftUpLeg
  {
    OFFSET 2.251771 -6.186694 0.000000
    CHANNELS 3 Zrotation Yrotation Xrotation
    JOINT LeftLeg
    {
      OFFSET 2.266012 -6.225823 0.000000
      CHANNELS 3 Zrotation Yrotation Xrotation
      JOINT LeftFoot
      {
        OFFSET 0.237014 -0.651191 2.158476
        CHANNELS 3 Zrotation Yrotation Xrotation
        JOINT LeftToeBase
        {
          OFFSET 0.000000 -0.000000 1.129490
          CHANNELS 3 Zrotation Yrotation Xrotation
          End Site
          {
            OFFSET 0 0 0
          }
        }
      }
    }
  }
  JOINT RightUpLeg
  {
    OFFSET -2.280357 -6.265234 0.000000
    CHANNELS 3 Zrotation Yrotation Xrotation
    JOINT RightLeg
    {
      OFFSET -2.254897 -6.195283 0.000000
      CHANNELS 3 Zrotation Yrotation Xrotation
      JOINT RightFoot
      {
        OFFSET -0.283752 -0.779600 2.231370
        CHANNELS 3 Zrotation Yrotation Xrotation
        JOINT RightToeBase
        {
          OFFSET -0.000000 -0.000000 1.178990
          CHANNELS 3 Zrotation Yrotation Xrotation
          End Site
          {
            OFFSET 0 0 0
          }
        }
      }
    }
  }
}
MOTION
Frames: 6
Frame Time: 0.00833333
1.472730 15.156200 4.978300 5.192080 -23.252000 -16.844900 -10.778600 20.594100 -82.122600 0.000000 0.000000 78.408400 189.805000 0.000000 -147.427000 0.000000 0.000000 -4.495770 26.243000 10.369000 -1.084180 0.000000 0.000000 39.088700 -5.845630 0.000000 -17.178100 0.000000 0.000000 12.462000 9.364550 1.294690 3.137340 -5.310400 1.976890 0.629260 -11.056500 0.993873 -0.592721 17.228600 11.934800 -1.059460 -4.704680 9.877150 19.314300 -0.000000 0.000000 0.000000 64.098500 -10.728300 -16.258900 0.000000 0.000000 142.273000 3.135510 0.000000 -25.172500 0.000000 0.000000 7.125020 -0.000000 0.000000 0.000000 -68.388600 29.665000 11.922200 0.000000 0.000000 126.689000 8.606990 0.000000 -31.557000 0.000000 0.000000 7.125020
1.449610 15.149800 5.037430 5.588280 -23.997000 -17.114200 -8.987360 20.447600 -80.448800 0.000000 0.000000 72.571300 191.981000 0.000000 -147.698000 0.000000 0.000000 -3.570730 26.091900 10.733300 -0.583626 0.000000 0.000000 38.708000 -5.497020 0.000000 -17.223800 0.000000 0.000000 12.675000 9.480830 1.372050 2.718460 -5.472540 2.050200 0.582028 -11.295800 1.042580 -0.376608 17.374700 12.063700 -0.511996 -4.727400 10.032000 19.324700 -0.000000 -0.000000 0.000000 63.965100 -10.238100 -17.355500 0.000000 0.000000 142.309000 2.966790 0.000000 -25.145500 0.000000 0.000000 7.125020 -0.000000 -0.000000 0.000000 -69.906200 30.802400 11.449300 0.000000 0.000000 126.536000 8.818110 0.000000 -31.733100 0.000000 0.000000 7.125020
1.421750 15.179300 5.074240 5.956590 -24.724300 -17.331200 -6.810220 20.048100 -78.170100 0.000000 0.000000 66.422300 194.526000 0.000000 -148.475000 0.000000 0.000000 -2.337300 25.975200 11.094800 -0.121389 0.000000 0.000000 38.202600 -5.141790 0.000000 -17.147800 0.000000 0.000000 12.864700 9.617350 1.442000 2.305930 -5.627080 2.114510 0.495981 -11.540200 1.082250 -0.206226 17.529800 12.188100 0.049210 -4.752990 10.187500 19.341800 0.000000 -0.000000 0.000000 63.882100 -9.780070 -18.478100 0.000000 0.000000 142.329000 2.921410 0.000000 -25.093500 0.000000 0.000000 7.125020 0.000000 -0.000000 0.000000 -71.420900 31.929000 10.891200 0.000000 0.000000 126.384000 8.995730 0.000000 -31.913600 0.000000 0.000000 7.125020
1.394410 15.209500 5.107060 6.298670 -25.433000 -17.517400 -4.077150 19.241500 -75.581700 0.000000 0.000000 60.281000 197.686000 0.000000 -149.818000 0.000000 0.000000 -0.525097 25.868900 11.428900 0.290657 0.000000 0.000000 37.702100 -4.770080 0.000000 -17.048700 0.000000 0.000000 13.031700 9.771890 1.501820 1.920200 -5.769430 2.167310 0.381042 -11.783600 1.111700 -0.083832 17.687000 12.309500 0.614706 -4.779610 10.343400 19.368500 0.000000 -0.000000 0.000000 63.857000 -9.356450 -19.612400 0.000000 0.000000 142.332000 2.972370 0.000000 -25.036400 0.000000 0.000000 7.125020 0.000000 -0.000000 0.000000 -72.897000 33.033000 10.267000 0.000000 0.000000 126.240000 9.149890 0.000000 -32.050500 0.000000 0.000000 7.125020
1.368480 15.238600 5.137150 6.620400 -26.117700 -17.695000 -0.534144 17.765000 -72.652600 0.000000 0.000000 54.245700 201.862000 0.000000 -152.060000 0.000000 0.000000 2.345290 25.761100 11.716700 0.726057 0.000000 0.000000 37.081200 -4.353070 0.000000 -16.857700 0.000000 0.000000 13.177800 9.938870 1.549800 1.566570 -5.897820 2.206270 0.257207 -12.020700 1.131650 0.007518 17.845400 12.429100 1.163660 -4.808780 10.498400 19.408600 0.000000 0.000000 0.000000 63.884200 -8.952770 -20.719100 0.000000 0.000000 142.291000 3.010470 0.000000 -25.029900 0.000000 0.000000 7.125020 0.000000 0.000000 0.000000 -74.288800 34.091100 9.615750 0.000000 0.000000 126.103000 9.311010 0.000000 -32.120600 0.000000 0.000000 7.125020
1.344930 15.264400 5.166590 6.929670 -26.775300 -17.885500 4.214500 15.163600 -69.424500 0.000000 0.000000 48.617000 207.698000 0.000000 -156.224000 0.000000 0.000000 7.338060 25.640400 11.949300 1.121600 0.000000 0.000000 36.552300 -3.910670 0.000000 -16.707200 0.000000 0.000000 13.300400 10.103200 1.579530 1.259760 -6.003350 2.223670 0.128961 -12.232800 1.137720 0.060770 17.998700 12.548500 1.706560 -4.843500 10.654600 19.457400 0.000000 0.000000 0.000000 63.968800 -8.559120 -21.814700 0.000000 0.000000 142.228000 3.081740 0.000000 -25.075600 0.000000 0.000000 7.125020 0.000000 0.000000 0.000000 -75.557700 35.110700 8.957410 0.000000 0.000000 125.971000 9.517750 0.000000 -32.127200 0.000000 0.000000 7.125020
